<svg width="49" height="54" viewBox="0 0 49 54" fill="none" xmlns="http://www.w3.org/2000/svg">
<line y1="-1" x2="22.5971" y2="-1" transform="matrix(-0.204665 -0.978832 0.988768 -0.149456 18.5965 45.6724)" stroke="#E40808" stroke-width="2"/>
<path d="M20.5235 26.5027L23.2213 45.6723" stroke="#E40808" stroke-width="2"/>
<path d="M27.7497 26.5027L27.7497 45.6786" stroke="#E40808" stroke-width="2"/>
<path d="M35.1974 24.1364L32.3932 45.6139" stroke="#E40808" stroke-width="2"/>
<line y1="-1" x2="21.9162" y2="-1" transform="matrix(-0.202231 0.979338 -0.989041 -0.147643 41.528 24.2089)" stroke="#E40808" stroke-width="2"/>
<line x1="17.6329" y1="45" x2="38.0593" y2="45" stroke="#E40808" stroke-width="2"/>
<line y1="-1" x2="9.8294" y2="-1" transform="matrix(0.999861 0.0166691 -0.0230554 0.999734 33.2418 24.5366)" stroke="#E40808" stroke-width="2"/>
<line x1="13.2008" y1="23.2089" x2="17.4402" y2="23.2089" stroke="#E40808" stroke-width="2"/>
<path d="M13.9715 25.0281C7.80502 23.4716 6.84163 12.4122 18.5 16.9179M38.5483 11.8771C43.1731 10.6483 47.1163 16.4264 42.306 18.9224M10.4866 16.9179C6.84163 11.5174 17.5366 6.51388 22.0651 12.5761M19.5599 10.4176C18.8855 4.76504 33.2417 3.89868 32.2782 11.5174M31.4445 8.15231C35.6505 5.85851 42.2024 11.0196 36.4213 13.8049M24.8592 25.0281C21.3906 29.288 13.9715 23.1439 18.5 19.8671M44.2918 16.9179C46.3455 16.9179 47.8943 23.062 42.306 24.5366M30.6403 15.2795C34.0126 11.8771 41.3352 15.2795 39.3118 18.9223M25.4373 19.8671C25.4373 15.9348 31.122 15.6891 33.5308 18.3106M33.5308 23.7993C32.2782 28.1411 24.0884 27.4857 23.5103 21.997" stroke="#E40808" stroke-width="2"/>
<rect width="16.5766" height="36.0346" transform="matrix(-0.0523359 0.99863 -0.999899 0.0142397 45.8726 33.5431)" fill="black"/>
<rect width="6.02786" height="5.7604" transform="matrix(-0.0697565 0.997564 -0.999995 -0.0032131 14.6531 42.4713)" fill="white"/>
<rect width="6.02786" height="5.7604" transform="matrix(-0.0697565 0.997564 -0.999995 -0.0032131 23.2937 42.4993)" fill="white"/>
<rect width="6.02786" height="5.7604" transform="matrix(-0.0697565 0.997564 -0.999995 -0.0032131 31.9342 42.527)" fill="white"/>
<rect width="6.02786" height="5.7604" transform="matrix(-0.0697565 0.997564 -0.999995 -0.0032131 40.5748 42.5548)" fill="white"/>
<rect width="6.02786" height="2.8802" transform="matrix(-0.0697565 0.997564 -0.999995 -0.00321311 46.3351 42.5734)" fill="white"/>
<rect width="16.4085" height="26.1666" transform="matrix(0.481534 0.876427 -0.882972 0.469426 23.5281 26.1305)" fill="black"/>
<rect width="5.96672" height="3.40823" transform="matrix(0.481534 0.876427 -0.882972 0.469426 5.82826 42.1697)" fill="white"/>
<rect width="5.96672" height="5.93509" transform="matrix(0.481534 0.876427 -0.882972 0.469426 13.6891 37.9905)" fill="white"/>
<rect width="5.96672" height="5.93509" transform="matrix(0.481534 0.876427 -0.882972 0.469426 21.5499 33.8114)" fill="white"/>
<rect width="5.96672" height="2.74327" transform="matrix(0.481534 0.876427 -0.882972 0.469426 26.5922 31.1305)" fill="white"/>
</svg>
